# xmcd CD database file
#
# Track frame offsets:
#	150
#	12542
#	25203
#	35187
#	49885
#	61782
#	72342
#	81841
#	92801
#	103798
#	115661
#	125211
#	133176
#	144924
#	156435
#	166854
#	179246
#	191164
#	202383
#	211394
#	221874
#	237162
#	248526
#	260033
#	271736
#	283104
#	294244
#
# Disc length: 4095 seconds
#
# Revision: 5
# Processed by: cddbd v1.5.2PL0 Copyright (c) Steve Scherf et al.
# Submitted via: CDex 1.51
#
DISCID=b10ffd1b
DTITLE=Patsy Cline - The Patsy Cline Collection, Disc 1  -  Honky Tonk Merry Go Round
DYEAR=1991
DGENRE=Country
TTITLE0=I'm WalkingThe Dog (Radio Transcription)
TTITLE1=It Wasn't God Who Made Honky Tonk Angels (Radio Transcription)
TTITLE2=Turn The Cards Slowly
TTITLE3=A Church, A Courtroom, And Then Goodbye
TTITLE4=Honky Tonk Merry Go Round
TTITLE5=I Love You, Honey
TTITLE6=Come On In (And Make Yourself At Home)
TTITLE7=I Don't Wanta 
TTITLE8=Stop, Look And Listen (Previously Unreleased)
TTITLE9=I've Loved And Lost Again
TTITLE10=Yes, I Know Why (Radio Transcription)
TTITLE11=For Rent (Radio Transcription)
TTITLE12=Walkin' After Midnight 
TTITLE13=The Heart You Break May Be Your Own
TTITLE14=Pick Me Up On Your Way Down
TTITLE15=A Poor Man's Roses (Or A Rich Man's Gold)
TTITLE16=Today, Tomorrow And Forever
TTITLE17=Don't Ever Leave Me Again
TTITLE18=Try Again
TTITLE19=Too Many Secrets
TTITLE20=Then You'll Know
TTITLE21=Three Cigarettes In An Ashtray
TTITLE22=That Wonderful Someone
TTITLE23=In Care Of The Blues
TTITLE24=Hungry For Love
TTITLE25=I Can't Forget
TTITLE26=If I Could See The World (Through The Eyes Of A Child)
EXTD=YEAR: 1991
EXTT0=
EXTT1=
EXTT2=
EXTT3=
EXTT4=
EXTT5=
EXTT6=
EXTT7=
EXTT8=
EXTT9=
EXTT10=
EXTT11=
EXTT12=
EXTT13=
EXTT14=
EXTT15=
EXTT16=
EXTT17=
EXTT18=
EXTT19=
EXTT20=
EXTT21=
EXTT22=
EXTT23=
EXTT24=
EXTT25=
EXTT26=
PLAYORDER=
